<?xml version="1.0" encoding="utf-8"?>
<!-- Generator: Adobe Illustrator 27.5.0, SVG Export Plug-In . SVG Version: 6.00 Build 0)  -->
<svg version="1.1" id="Layer_1" xmlns="http://www.w3.org/2000/svg" xmlns:xlink="http://www.w3.org/1999/xlink" x="0px" y="0px"
	 viewBox="0 0 430 121.4" style="enable-background:new 0 0 430 121.4;" xml:space="preserve">
<style type="text/css">
	.st0{fill-rule:evenodd;clip-rule:evenodd;fill:#000000;}
</style>
<path class="st0" d="M218.2,60.9c0,0.5,0.5,1,1,1h8c0.7,0,1.3-0.2,1.9-0.4c0.6-0.3,1.1-0.7,1.5-1.3c0.4-0.6,0.8-1.2,1-1.9
	c0.5-1.5,0.5-3.2-0.1-4.7c-0.3-0.7-0.6-1.3-1.1-1.9c-0.4-0.5-1-0.9-1.6-1.2c-0.6-0.3-1.2-0.4-1.9-0.4H219c-0.1,0-0.2,0-0.3,0.1
	c-0.1,0-0.2,0.1-0.3,0.2c-0.1,0.1-0.1,0.2-0.2,0.3c0,0.1-0.1,0.2-0.1,0.3V60.9z M211,79.7V44.5c0-0.4,0.4-0.8,0.8-0.8h15.6
	c1.7,0,3.3,0.3,4.7,1.1c2.9,1.4,5.1,3.8,6.2,6.8c0.7,1.8,1,3.7,0.8,5.6s-0.8,3.7-1.8,5.4c-1,1.6-2.4,3-4.1,3.8
	c-0.1,0-0.2,0.1-0.2,0.2c-0.1,0.1-0.1,0.2-0.1,0.3c0,0.1,0,0.2,0,0.3c0,0.1,0.1,0.2,0.1,0.3l7.3,11.9c0.1,0.1,0.1,0.2,0.1,0.4
	c0,0.1,0,0.3-0.1,0.4c-0.1,0.1-0.2,0.2-0.3,0.3c-0.1,0.1-0.3,0.1-0.4,0.1h-6c-0.2,0-0.4,0-0.6-0.2c-0.2-0.1-0.3-0.3-0.5-0.4
	l-6.8-11.1c-0.1-0.2-0.3-0.3-0.5-0.5c-0.2-0.1-0.4-0.2-0.6-0.2h-5.6c-0.2,0-0.4,0.1-0.5,0.2c-0.1,0.1-0.2,0.3-0.2,0.5v10.8
	c0,0.4-0.3,0.8-0.8,0.8h-5.7c-0.1,0-0.2,0-0.3-0.1c-0.1,0-0.2-0.1-0.3-0.2c-0.1-0.1-0.1-0.2-0.2-0.3C211,79.9,211,79.8,211,79.7z
	 M271.3,65.5l-4.2-11.9c0-0.1-0.1-0.2-0.2-0.3c-0.1-0.1-0.2-0.1-0.4-0.1c-0.1,0-0.3,0-0.4,0.1c-0.1,0.1-0.2,0.2-0.2,0.3l-4.4,11.9
	c0,0.1,0,0.2,0,0.3c0,0.1,0.1,0.2,0.1,0.3c0.1,0.1,0.1,0.1,0.2,0.2c0.1,0,0.2,0.1,0.3,0.1h8.6C271.2,66.4,271.5,65.9,271.3,65.5z
	 M264,43.8h5c0.4,0,0.8,0.3,0.9,0.7l13.3,34.8c0.1,0.1,0.1,0.3,0.1,0.5c0,0.2-0.1,0.3-0.2,0.4c-0.1,0.1-0.2,0.2-0.3,0.3
	c-0.1,0.1-0.3,0.1-0.5,0.1H277c-0.2,0-0.4-0.1-0.6-0.2c-0.2-0.1-0.3-0.3-0.4-0.5l-2.9-7.9c-0.1-0.2-0.2-0.4-0.4-0.5
	c-0.2-0.1-0.4-0.2-0.6-0.2h-11.5c-0.2,0-0.4,0.1-0.6,0.2c-0.2,0.1-0.3,0.3-0.4,0.5l-2.9,7.9c-0.1,0.2-0.2,0.3-0.4,0.5
	c-0.2,0.1-0.4,0.2-0.6,0.2h-5.2c-0.2,0-0.3,0-0.5-0.1c-0.1-0.1-0.3-0.2-0.4-0.3c-0.1-0.1-0.1-0.3-0.2-0.4c0-0.2,0-0.3,0.1-0.5
	l13.4-34.8c0.1-0.2,0.2-0.4,0.4-0.5C263.6,43.8,263.8,43.8,264,43.8z M300.4,59v20.6c0,0.3-0.1,0.5-0.3,0.7
	c-0.2,0.2-0.4,0.3-0.7,0.3h-5.2c-0.3,0-0.5-0.1-0.7-0.3c-0.2-0.2-0.3-0.4-0.3-0.7V44.7c0-0.5,0.5-0.9,1-0.9h3.9
	c0.5,0,0.9,0.2,1.1,0.5l17.7,22.1c0.4,0.5,1.2,0.2,1.2-0.4V44.8c0-0.5,0.4-0.9,1-0.9h5.2c0.5,0,1,0.4,1,0.9v34.8
	c0,0.3-0.1,0.5-0.3,0.7c-0.2,0.2-0.4,0.3-0.7,0.3H320c-0.2,0-0.4-0.1-0.6-0.1c-0.2-0.1-0.3-0.2-0.5-0.4l-17.4-21.5
	c-0.1-0.1-0.2-0.2-0.4-0.2c-0.1,0-0.3,0-0.4,0c-0.1,0-0.3,0.1-0.3,0.3C300.4,58.7,300.4,58.8,300.4,59z"/>
<path class="st0" d="M335.9,61.9c0-2.2,0.4-4.5,1.2-6.7c0.8-2.2,2-4.2,3.6-5.9c1.6-1.8,3.6-3.2,5.7-4.2c2.3-1.1,4.8-1.6,7.7-1.6
	c3.4,0,6.4,0.7,8.8,2.2c2.3,1.4,4,3.1,5.2,5.2c0.1,0.2,0.1,0.4,0.1,0.5c0,0.2-0.2,0.3-0.3,0.5l-4.3,2.9c-0.1,0.1-0.2,0.1-0.3,0.1
	c-0.1,0-0.2,0-0.3,0c-0.1,0-0.2-0.1-0.3-0.1c-0.1-0.1-0.1-0.1-0.2-0.2c-0.8-1.5-2.1-2.7-3.6-3.6c-0.8-0.4-1.6-0.7-2.5-0.9
	c-0.8-0.2-1.7-0.3-2.6-0.3c-1.6,0-3.1,0.3-4.5,1c-1.4,0.7-2.6,1.7-3.5,2.9c-0.9,1.2-1.6,2.5-2,3.9c-0.4,1.4-0.7,2.9-0.7,4.4
	c0,1.6,0.3,3.2,0.8,4.7c0.5,1.4,1.2,2.8,2.2,4c1,1.1,2.1,2.1,3.4,2.7c1.3,0.7,2.8,1,4.4,1c0.8,0,1.7-0.1,2.6-0.3
	c1.9-0.4,3.5-1.3,4.9-2.7c0.5-0.5,1-1.2,1.3-1.9c0-0.1,0.1-0.2,0.2-0.2c0.1-0.1,0.2-0.1,0.3-0.1c0.1,0,0.2,0,0.3,0
	c0.1,0,0.2,0,0.3,0.1l4.6,2.6c0.2,0.1,0.3,0.2,0.3,0.4c0.1,0.2,0,0.4,0,0.5c-0.6,1.1-1.3,2.1-2.2,3c-1.1,1.1-2.4,1.9-3.7,2.7
	c-1.4,0.7-2.9,1.3-4.4,1.7c-1.5,0.4-3,0.6-4.6,0.6c-2.5,0-5-0.5-7.2-1.7c-2.1-1.1-4.1-2.5-5.7-4.3c-1.6-1.8-2.8-3.8-3.7-6.1
	C336.4,66.6,335.9,64.3,335.9,61.9z"/>
<path class="st0" d="M411,44.5v35.3c0,0.4-0.3,0.7-0.7,0.7h-5.7c-0.2,0-0.4-0.1-0.5-0.2c-0.1-0.1-0.2-0.3-0.2-0.5V65.6
	c0-0.2-0.1-0.4-0.2-0.5c-0.1-0.1-0.3-0.2-0.5-0.2h-15.4c-0.2,0-0.4,0.1-0.5,0.2c-0.1,0.1-0.2,0.3-0.2,0.5v14.3
	c0,0.4-0.3,0.7-0.7,0.7h-5.8c-0.2,0-0.4-0.1-0.5-0.2c-0.1-0.1-0.2-0.3-0.2-0.5V44.5c0-0.4,0.3-0.7,0.7-0.7h5.8
	c0.4,0,0.7,0.3,0.7,0.7v13.4c0,0.4,0.3,0.7,0.7,0.7h15.4c0.4,0,0.7-0.3,0.7-0.7V44.5c0-0.4,0.3-0.7,0.7-0.7h5.7
	C410.7,43.8,411,44.1,411,44.5z"/>
<path class="st0" d="M191.5,71.5c-0.2,0.6-0.6,1.1-1,1.5c-0.4,0.4-0.9,0.8-1.5,1c-0.6,0.2-1.2,0.4-1.9,0.4h-9.9
	c-0.2,0-0.4-0.1-0.5-0.2c-0.1-0.1-0.2-0.3-0.2-0.5v-8.2c0-0.4,0.3-0.7,0.7-0.7h10.3c0.6,0,1.2,0.1,1.7,0.4c0.5,0.3,1,0.6,1.4,1.1
	c0.6,0.7,1,1.6,1.2,2.5C191.9,69.7,191.9,70.6,191.5,71.5L191.5,71.5z M177.2,49.8h9c1.1,0,2.2,0.4,2.9,1.1c0.9,0.8,1.3,2,1.3,3.5
	c0,1.4-0.5,2.6-1.3,3.4c-0.4,0.4-0.9,0.7-1.4,0.9c-0.5,0.2-1.1,0.3-1.7,0.3h-8.9c-0.2,0-0.4-0.1-0.5-0.2c-0.1-0.1-0.2-0.3-0.2-0.5
	v-7.9c0-0.2,0.1-0.3,0.2-0.5C176.9,49.9,177,49.8,177.2,49.8L177.2,49.8z M197.3,65c-1.2-1.5-2.9-2.7-4.8-3.2c0,0-0.1,0-0.1,0
	c0,0,0-0.1,0-0.1c0,0,0-0.1,0-0.1c0,0,0.1,0,0.1,0c1.6-0.7,2.8-1.9,3.7-3.4c0.7-1.3,1.2-2.7,1.3-4.1c0.1-1.5-0.1-2.9-0.6-4.3
	c-0.4-1.1-1-2.1-1.7-3c-0.7-0.9-1.6-1.6-2.6-2.2c-1.1-0.6-2.3-0.8-3.5-0.8H170c-0.2,0-0.4,0.1-0.5,0.2c-0.1,0.1-0.2,0.3-0.2,0.5
	v35.3c0,0.4,0.3,0.8,0.7,0.8h17.1c1.6,0,3.1-0.2,4.6-0.6c1.4-0.4,2.6-1,3.8-1.8c1.1-0.8,2-1.8,2.6-3c0.6-1.2,0.9-2.5,0.9-4.1
	C199.1,68.6,198.5,66.6,197.3,65"/>
<path class="st0" d="M100.1,60.4l-17.1,17c-0.5,0.4-1.2,0.1-1.2-0.5v-4.8c0-0.8,0.3-1.5,0.9-2.1l21.9-21.9c0.1-0.1,0.2-0.3,0.3-0.4
	c0.1-0.2,0.1-0.3,0.1-0.5s0-0.4-0.1-0.5c-0.1-0.2-0.2-0.3-0.3-0.4l-2.5-2.6c-0.1-0.1-0.3-0.2-0.4-0.3c-0.2-0.1-0.3-0.1-0.5-0.1
	c-0.2,0-0.4,0-0.5,0.1c-0.2,0.1-0.3,0.2-0.4,0.3L83.2,60.4c-0.1,0.1-0.3,0.2-0.5,0.2c-0.2,0-0.3,0-0.5-0.1c-0.2-0.1-0.3-0.2-0.4-0.3
	c-0.1-0.1-0.1-0.3-0.2-0.5V25.4c0-0.4-0.1-0.7-0.4-1c-0.3-0.3-0.6-0.4-1-0.4h-3.6c-0.4,0-0.7,0.2-0.9,0.4c-0.2,0.3-0.4,0.6-0.4,0.9
	v16.3c0,0.7-0.8,1-1.2,0.5l-9.7-9.7c-0.1-0.1-0.3-0.2-0.4-0.3c-0.2-0.1-0.3-0.1-0.5-0.1c-0.2,0-0.4,0-0.5,0.1
	c-0.2,0.1-0.3,0.2-0.4,0.3l-2.6,2.6c-0.1,0.1-0.2,0.3-0.3,0.4s-0.1,0.3-0.1,0.5c0,0.2,0,0.4,0.1,0.5s0.2,0.3,0.3,0.4l14.1,14.2
	c0.8,0.8,1.2,1.9,1.2,3v13.6c0,0.7-0.9,1.1-1.4,0.6L51.7,45.9c-0.1-0.1-0.3-0.2-0.4-0.3c-0.2-0.1-0.3-0.1-0.5-0.1
	c-0.2,0-0.4,0-0.5,0.1c-0.2,0.1-0.3,0.2-0.4,0.3l-2.6,2.6c-0.1,0.1-0.2,0.3-0.3,0.4c-0.1,0.2-0.1,0.3-0.1,0.5c0,0.2,0,0.4,0.1,0.5
	c0.1,0.2,0.2,0.3,0.3,0.4l27,27.2c0.8,0.8,1.2,1.8,1.2,2.9v17.5c0,0.7,0.6,1.3,1.3,1.3h3.6c0.4,0,0.7-0.1,0.9-0.4
	c0.2-0.3,0.4-0.6,0.4-0.9v-8.8c0-1,0.4-1.9,1.1-2.7l21.7-21.6c0.1-0.1,0.2-0.3,0.3-0.4c0.1-0.2,0.1-0.3,0.1-0.5c0-0.2,0-0.4-0.1-0.5
	c-0.1-0.2-0.2-0.3-0.3-0.4l-2.5-2.6c-0.1-0.1-0.3-0.2-0.4-0.3c-0.2-0.1-0.3-0.1-0.5-0.1c-0.2,0-0.4,0-0.5,0.1
	C100.3,60.1,100.2,60.2,100.1,60.4z"/>
<path class="st0" d="M78.1,5.8c-30,0-54.3,24.6-54.3,54.8c0,30.2,24.4,54.9,54.4,54.9c30,0,54.4-24.6,54.4-54.9S108.1,5.8,78.1,5.8z
	 M78.1,121.4C44.9,121.4,18,94.1,18,60.7C18,27.2,45,0,78.1,0c33.2,0,60.2,27.2,60.2,60.7C138.3,94.2,111.3,121.4,78.1,121.4"/>
</svg>
