<svg width="430" height="250" viewBox="0 0 430 250" fill="none" xmlns="http://www.w3.org/2000/svg">
<path d="M343.592 108.06C342.662 107.804 341.669 107.357 340.772 107.453C338.112 107.645 335.484 107.069 332.824 107.453C332.006 107.575 331.176 107.586 330.356 107.485C328.337 107.293 326.286 106.973 324.107 107.836C323.722 110.744 323.69 113.652 323.658 116.56C323.594 123.846 323.605 131.132 323.69 138.418C323.722 140.175 323.434 142.06 324.523 143.722C326.991 144.233 329.363 144.425 331.766 143.53C332.888 140.271 331.702 136.916 332.663 133.273C334.907 133.177 336.958 133.049 339.009 133.049C341.33 133.057 343.625 132.566 345.739 131.611C349.264 130.013 351.636 127.457 352.565 123.622C354.296 116.304 350.771 110.169 343.592 108.06ZM344.457 120.682C344.137 123.111 342.47 125.124 340.099 125.412C339.618 125.476 339.137 125.54 338.656 125.571C338.753 125.795 333.593 125.54 332.567 125.252C332.045 121.941 332.002 118.573 332.439 115.25C335.448 114.23 338.732 114.378 341.637 115.665C342.588 116.085 343.377 116.801 343.885 117.705C344.394 118.61 344.595 119.654 344.457 120.682ZM312.537 133.688C312.537 128.735 312.537 123.814 312.569 118.861C312.505 118.448 312.505 118.028 312.569 117.615V109.945C312.569 109.146 312.249 108.348 312.025 107.357H305.647C304.301 107.357 303.34 107.996 302.667 109.146C301.705 110.712 300.68 112.214 299.718 113.748C298.34 115.921 297.026 118.094 295.616 120.235C295.264 120.778 295.039 121.609 293.821 121.609C293.181 120.65 292.411 119.564 291.706 118.477C289.848 115.506 287.957 112.502 286.162 109.466C285.76 108.802 285.19 108.255 284.51 107.879C283.829 107.503 283.062 107.312 282.284 107.325C280.714 107.325 279.111 107.357 277.509 107.389C276.484 107.389 275.971 108.124 275.682 108.923C275.531 109.507 275.477 110.111 275.522 110.712C275.554 113.397 275.65 116.049 275.65 118.733C275.618 124.453 275.554 130.173 275.49 135.893C275.49 137.97 275.49 140.015 275.554 142.092C275.586 143.147 276.099 143.754 277.092 143.818C279.111 143.978 281.163 144.233 283.182 143.722C283.374 143.211 283.566 142.859 283.566 142.54C283.662 139.248 283.726 135.957 283.758 132.698C283.79 129.917 283.758 127.105 283.726 124.325C283.706 123.792 283.828 123.263 284.079 122.791C284.087 122.598 284.108 122.406 284.143 122.216L284.335 121.993C284.508 121.97 284.679 121.938 284.848 121.897C284.863 121.89 284.879 121.886 284.895 121.886C284.911 121.885 284.927 121.888 284.942 121.894C284.957 121.9 284.971 121.909 284.982 121.92C284.993 121.932 285.002 121.946 285.008 121.961C285.04 122.024 285.104 122.12 285.104 122.12L285.137 122.248C285.305 122.397 285.437 122.583 285.521 122.791C285.86 123.334 286.16 123.9 286.418 124.485L286.579 124.677C286.579 124.677 290.777 131.132 292.924 134.327C293.213 134.775 293.821 134.998 294.366 135.382C296.114 133.274 297.689 131.03 299.077 128.671C301.705 124.261 302.218 123.59 304.045 122.6C304.558 124.293 304.237 125.987 304.301 127.649C304.365 129.47 304.301 131.292 304.301 133.113C304.301 134.807 304.269 136.532 304.333 138.226C304.397 140.015 303.917 141.869 304.718 143.594C307.25 144.074 307.826 144.01 312.409 142.732C312.473 141.485 312.569 140.143 312.569 138.833C312.634 137.075 312.537 135.382 312.537 133.688ZM267.19 143.083L244.468 106.302C244.41 106.21 244.33 106.134 244.235 106.081C244.139 106.028 244.032 106 243.923 106C243.814 106 243.707 106.028 243.611 106.081C243.516 106.134 243.436 106.21 243.378 106.302C240.237 111.479 224.117 137.715 220.848 143.083C220.793 143.179 220.763 143.289 220.763 143.4C220.762 143.511 220.791 143.621 220.846 143.718C220.901 143.815 220.98 143.895 221.076 143.952C221.172 144.009 221.282 144.04 221.393 144.042H235.59C235.701 144.038 235.809 144.007 235.904 143.951C235.999 143.895 236.079 143.817 236.135 143.722C237.61 141.294 241.808 133.049 243.314 130.557C243.36 130.45 243.436 130.36 243.533 130.296C243.629 130.232 243.743 130.199 243.859 130.199C243.975 130.199 244.088 130.232 244.185 130.296C244.282 130.36 244.358 130.45 244.404 130.557L251.871 143.754C251.93 143.844 252.011 143.917 252.106 143.967C252.202 144.018 252.308 144.043 252.416 144.042H266.645C266.76 144.05 266.876 144.025 266.977 143.971C267.079 143.916 267.164 143.834 267.221 143.734C267.278 143.633 267.305 143.519 267.3 143.404C267.294 143.289 267.256 143.177 267.19 143.083ZM242.321 128.671L234.693 142.22C234.661 142.252 234.629 142.284 234.597 142.252C234.212 142.028 232.225 140.718 230.046 134.487C230.014 134.423 230.078 134.391 230.11 134.391C230.847 134.359 235.238 133.976 242.224 128.575C242.289 128.511 242.385 128.575 242.321 128.671ZM207.356 132.953C208.734 134.295 209.888 135.382 210.978 136.532C212.131 137.778 212.099 138.545 210.882 139.6C208.286 141.901 205.369 143.658 201.908 144.233C197.774 144.904 193.64 145.032 189.73 143.115C183.352 140.047 179.411 135.318 178.706 128.064C178.225 123.271 179.026 118.925 181.782 114.898C185.019 110.169 189.57 107.613 195.114 106.814C199.152 106.239 203.126 106.942 206.908 108.635C209.343 109.722 210.112 110.425 211.555 112.725C210.497 114.866 208.927 116.624 206.844 118.254C205.69 117.519 204.6 116.784 203.446 116.113C199.376 113.78 194.954 114.004 191.429 116.656C190.173 117.631 189.154 118.876 188.448 120.299C187.839 121.481 187.07 122.6 186.75 123.846C186.526 124.871 186.559 125.936 186.846 126.946C187.206 128.23 187.678 129.481 188.256 130.684C190.595 135.797 195.979 138.13 201.363 136.277C202.382 135.883 203.358 135.391 204.28 134.807C205.241 134.295 206.139 133.688 207.356 132.953ZM161.56 108.06C160.631 107.804 159.637 107.357 158.74 107.453C156.08 107.645 153.452 107.069 150.792 107.453C149.975 107.575 149.144 107.586 148.324 107.485C146.305 107.293 144.254 106.973 142.075 107.836C141.69 110.744 141.658 113.652 141.626 116.56C141.562 123.846 141.573 131.132 141.658 138.418C141.69 140.175 141.402 142.06 142.491 143.722C144.959 144.233 147.331 144.425 149.734 143.53C150.856 140.271 149.67 136.916 150.632 133.273C152.875 133.177 154.926 133.049 156.977 133.049C159.298 133.057 161.593 132.566 163.707 131.611C167.232 130.013 169.604 127.457 170.533 123.622C172.264 116.304 168.739 110.169 161.56 108.06ZM162.425 120.682C162.105 123.111 160.438 125.124 158.067 125.412C157.586 125.476 157.105 125.54 156.625 125.571C156.721 125.795 151.561 125.54 150.535 125.252C150.013 121.941 149.97 118.573 150.407 115.25C153.416 114.23 156.701 114.378 159.605 115.665C160.556 116.085 161.345 116.801 161.854 117.705C162.362 118.61 162.563 119.654 162.425 120.682ZM128.967 108.635C128.967 108.316 128.647 107.996 128.454 107.613C126.403 107.069 124.352 107.389 122.301 107.453C121.404 107.485 120.827 108.188 120.667 109.146C120.614 109.506 120.592 109.87 120.603 110.233C120.603 120.459 120.635 130.684 120.635 140.91C120.635 141.869 120.603 142.859 121.5 143.786C123.775 144.138 126.147 144.233 128.615 143.594C128.807 143.083 129.095 142.636 129.095 142.188C129.095 131.004 129.053 119.82 128.967 108.635ZM108.36 120.203C108.36 117.902 108.328 115.569 108.425 113.269C108.495 111.317 108.212 109.369 107.591 107.517C105.06 107.325 102.688 107.037 100.188 107.772C99.0986 112.278 100.765 116.848 99.5153 121.162C96.663 122.088 89.6766 122.184 86.0231 121.353C85.0937 119.34 85.4462 117.103 85.286 114.962C85.0937 112.694 85.959 110.393 84.9976 107.996C83.7157 107.772 82.4337 107.453 81.1518 107.357C80.0943 107.261 79.0046 107.453 77.8189 107.517C76.4408 111.543 77.242 115.601 77.1458 119.564C76.9856 123.558 77.0497 127.585 77.1779 131.611C77.3061 135.574 76.5369 139.568 77.4663 143.466C80.9595 144.265 82.6901 144.233 85.1899 143.339C86.1513 138.993 84.9655 134.455 85.6706 130.013C89.6766 128.895 93.5864 129.662 97.4642 129.534C98.1372 129.502 98.8102 129.981 99.5153 130.237C100.316 134.615 99.323 139.057 100.316 143.339C100.355 143.315 100.399 143.302 100.445 143.302C100.49 143.302 100.534 143.315 100.573 143.339C100.861 143.53 101.182 143.658 101.47 143.818C103.649 144.074 105.668 144.169 107.655 143.562C108.489 140.686 108.649 140.527 108.168 138.769C107.816 137.523 107.944 136.404 108.168 135.222C108.713 132.57 107.944 123.494 108.457 122.823C108.425 121.929 108.36 121.066 108.36 120.203Z" fill="white"/>
</svg>
