<svg width="408" height="120" viewBox="0 0 408 120" fill="none" xmlns="http://www.w3.org/2000/svg">
<mask id="mask0_1315_1860" style="mask-type:luminance" maskUnits="userSpaceOnUse" x="126" y="27" width="156" height="54">
<path d="M281.287 27H126V80.963H281.287V27Z" fill="white"/>
</mask>
<g mask="url(#mask0_1315_1860)">
<path d="M277.097 44.8813V79.8138H269.461V44.8813H277.097Z" fill="black"/>
<path d="M225.776 44.8813V79.8998H218.112V76.4842C215.07 79.2397 211.252 80.8185 206.717 80.8185C197.618 80.8185 191.533 74.3314 191.533 64.2851V44.8813H199.197V63.7971C199.197 70.198 202.699 73.786 208.296 73.786C211.712 73.786 215.299 71.8628 218.141 68.2749V44.8813H225.776Z" fill="black"/>
<path d="M142.476 74.4462C147.011 74.4462 150.14 72.9535 150.14 70.198C150.14 68.1026 148.418 66.6101 145.461 66.0933L137.711 64.7443C132.344 63.8545 127.349 61.1563 127.349 54.8415C127.349 48.0674 133.233 43.9053 141.959 43.9053C148.733 43.9053 156.569 46.2017 157.316 55.3869H150.14C149.767 51.598 146.408 50.1053 141.959 50.1053C137.481 50.1053 135.042 51.7415 135.042 54.2101C135.042 56.0758 136.391 57.8554 140.467 58.5443L147.011 59.5776C152.293 60.5536 157.517 62.8498 157.517 69.6239C157.517 77.0008 151.03 80.7897 142.246 80.7897C133.98 80.7897 126.89 77.5175 126 68.2749L133.147 68.3609C133.98 72.6666 137.166 74.4462 142.476 74.4462Z" fill="black"/>
<path d="M188.462 79.3564C185.419 80.4759 182.865 80.7628 180.482 80.7628C171.555 80.7628 166.791 75.3953 166.791 66.3823V51.3702H158.524V44.8832H166.791V31.9952H174.541V44.8832H187.515V51.3702H174.541V66.411C174.541 71.4629 177.067 73.6443 181.401 73.6443C183.496 73.6443 185.563 73.0415 187.371 72.2953L188.462 79.3564Z" fill="black"/>
<path d="M281.086 27L269.461 30.9898L277.097 38.6537L281.086 27Z" fill="black"/>
<path d="M265.445 27V79.8723H257.753V77.0306C254.767 79.4131 250.978 80.7621 246.501 80.7621C236.655 80.7621 228.762 72.5815 228.762 62.2769C228.762 52.1445 236.655 43.9639 246.501 43.9639C250.978 43.9639 254.767 45.313 257.753 47.6093V27H265.445ZM257.753 68.6491V56.0482C255.14 52.3167 251.495 50.9963 247.62 50.9963C241.219 50.9963 236.512 56.1343 236.512 62.3056C236.512 68.563 241.19 73.7871 247.62 73.7871C251.495 73.7871 255.14 72.438 257.753 68.6491Z" fill="black"/>
</g>
</svg>
