<svg width="430" height="250" viewBox="0 0 430 250" fill="none" xmlns="http://www.w3.org/2000/svg">
<path fill-rule="evenodd" clip-rule="evenodd" d="M219.882 115.106C220.266 114.699 220.726 114.371 221.235 114.143C221.744 113.915 222.293 113.79 222.85 113.777C223.408 113.763 223.962 113.86 224.482 114.063C225.002 114.266 225.476 114.57 225.879 114.958C226.282 115.347 226.605 115.811 226.829 116.326C227.053 116.84 227.174 117.394 227.186 117.956C227.197 118.517 227.098 119.076 226.895 119.599C226.691 120.122 226.387 120.599 226 121.004C225.223 121.816 224.159 122.285 223.039 122.308C221.92 122.33 220.838 121.905 220.029 121.125C219.219 120.346 218.75 119.274 218.723 118.146C218.695 117.018 219.112 115.925 219.882 115.106ZM244.134 152.647C244.021 149.36 243.056 145.884 240.591 143.591C237.841 141.032 233.86 139.857 230.16 139.857H213.666C212.037 139.857 210.594 138.632 210.594 137.119C210.595 136.512 210.796 135.923 211.165 135.444C211.534 134.965 212.05 134.623 212.633 134.471C212.629 134.468 212.914 134.398 213.217 134.298C216.227 135.696 219.508 136.402 222.822 136.363C227.91 136.363 233.005 134.865 236.738 131.368C240.372 127.962 242.07 123.202 242.07 118.328C242.07 113.453 240.372 108.696 236.738 105.291C235.677 104.3 234.495 103.45 233.221 102.762C236.723 103.575 240.339 102.567 242.826 98.2666L235.818 93.2192L229.974 101.378C227.66 100.646 225.248 100.281 222.823 100.295C217.738 100.295 212.64 101.794 208.907 105.291C205.273 108.696 203.578 113.457 203.578 118.328C203.578 123.198 205.273 127.962 208.907 131.368C209.225 131.662 209.55 131.942 209.886 132.211C209.528 132.402 209.203 132.575 209.203 132.575C207.491 133.564 205.937 134.808 204.594 136.264C202.289 138.724 199.984 142.405 199.984 147.305C199.984 147.305 199.663 157.757 211.639 157.757H220.313C222.311 157.757 224.345 159.031 224.345 161.03C224.345 161.73 224.144 162.414 223.765 163H240.357C242.857 160.147 244.205 156.453 244.134 152.647ZM261.983 115.106C263.646 113.5 266.281 113.537 267.899 115.191C269.516 116.845 269.516 119.501 267.899 121.155C266.281 122.809 263.646 122.846 261.983 121.24C260.424 119.497 260.424 116.849 261.983 115.106ZM291.369 152.647C291.26 149.36 290.292 145.884 287.83 143.591C285.076 141.032 281.095 139.857 277.399 139.857L258.254 139.718C257.045 139.718 256.124 138.959 256.124 137.836C256.124 136.912 256.581 135.532 257.739 135.303C260.028 136.018 262.413 136.376 264.81 136.364C269.897 136.364 274.996 134.865 278.725 131.368C282.359 127.962 284.057 123.202 284.057 118.328C284.057 113.453 282.359 108.696 278.725 105.291C277.664 104.3 276.482 103.45 275.208 102.762C278.71 103.575 282.326 102.567 284.813 98.2666L277.808 93.2192L271.961 101.378C269.647 100.646 267.235 100.281 264.81 100.295C259.726 100.295 254.627 101.794 250.895 105.291C247.264 108.696 245.566 113.457 245.566 118.328C245.566 123.198 247.264 127.962 250.895 131.368C251.962 132.362 253.151 133.215 254.434 133.905C253.503 134.616 252.633 135.406 251.833 136.264C249.525 138.724 247.22 142.405 247.22 147.305C247.22 147.305 246.903 157.757 258.879 157.757H267.553C269.551 157.757 271.581 159.031 271.581 161.03C271.582 161.729 271.382 162.414 271.004 163H287.593C290.094 160.148 291.442 156.453 291.369 152.647ZM311.446 147.283V131.681C307.871 132.137 306.629 129.608 306.629 127.101V89H288.904V129.947C288.904 135.031 289.66 139.272 291.49 141.941C294.299 146.002 298.104 148.66 305.668 148.693C307.063 148.631 309.394 148.355 311.446 147.283ZM180.992 128.308C179.099 130.414 175.986 130.86 173.586 129.37C171.186 127.879 170.181 124.875 171.195 122.224C172.21 119.573 174.955 118.027 177.727 118.547C180.498 119.067 182.508 121.505 182.508 124.347C182.543 125.818 181.998 127.242 180.992 128.308ZM194.199 107.102C189.623 102.419 183.374 100.417 177.139 100.417C170.905 100.417 164.652 102.419 160.075 107.102C155.62 111.66 153.538 118.033 153.538 124.553C153.538 131.073 155.62 137.45 160.075 142.008C164.648 146.687 170.901 148.693 177.139 148.693C183.377 148.693 189.623 146.687 194.199 142.008C198.655 137.45 200.737 131.077 200.737 124.553C200.737 118.03 198.655 111.66 194.199 107.102ZM146.931 131.743C143.983 131.743 142.778 130.838 141.69 129.45C140.981 128.544 140.631 127.211 140.631 125.485V117.407H150.525V102.931H140.631V89H127.986V94.2094C127.986 99.9786 123.6 104.654 118.194 104.654C117.795 104.653 117.396 104.627 117 104.577V117.407H123.64V130.304C123.64 135.381 124.553 139.291 126.379 141.956C129.199 146.032 132.325 148.693 139.962 148.693C144.389 148.693 148.092 147.673 150.525 146.315V131.143C149.372 131.558 148.155 131.761 146.931 131.743Z" fill="white"/>
</svg>
